<?xml version="1.0" encoding="UTF-8"?>
<svg xmlns="http://www.w3.org/2000/svg" viewBox="0 0 1584 396" width="1584" height="396">
  <rect width="1584" height="396" fill="#050510"/>
  <g transform="translate(180, 190) scale(2.5)">
  <path d="M 20 20 L 20 -20 L -20 -20 L -20 20 Z" stroke="#00FF88" stroke-width="0.99" opacity="0.25" fill="none"/>
  <path d="M 28 28 L 28 -28 L -28 -28 L -28 28 Z" stroke="#00FF88" stroke-width="1.32" opacity="0.55" fill="none"/>
  <path d="M 28 28 L 20 20 M 28 -28 L 20 -20 M -28 -28 L -20 -20 M -28 28 L -20 20" stroke="#00FF88" stroke-width="0.77" opacity="0.2" fill="none"/>
  <path d="M 0 -38 L 38 0 L 0 38 L -38 0 Z" stroke="#00D4FF" stroke-width="0.88" opacity="0.4" fill="none"/>
  <path d="M 12 12 L -12 -12" stroke="#00D4FF" stroke-width="0.88" opacity="0.25" fill="none"/>
  <path d="M 28 28 L 38 0 M 28 28 L 0 38 M 28 -28 L 38 0 M 28 -28 L 0 -38 M -28 -28 L -38 0 M -28 -28 L 0 -38 M -28 28 L -38 0 M -28 28 L 0 38" stroke="#7A27FF" stroke-width="0.44" opacity="0.15" fill="none"/>
  <circle cx="20" cy="20" r="2.42" fill="#00FF88" opacity="0.5"/>
  <circle cx="20" cy="-20" r="2.42" fill="#00FF88" opacity="0.5"/>
  <circle cx="-20" cy="-20" r="2.42" fill="#00FF88" opacity="0.5"/>
  <circle cx="-20" cy="20" r="2.42" fill="#00FF88" opacity="0.5"/>
  <circle cx="28" cy="28" r="3.30" fill="#00FF88" opacity="0.9"/>
  <circle cx="28" cy="-28" r="3.30" fill="#00FF88" opacity="0.9"/>
  <circle cx="-28" cy="-28" r="3.30" fill="#00FF88" opacity="0.9"/>
  <circle cx="-28" cy="28" r="3.30" fill="#00FF88" opacity="0.9"/>
  <circle cx="0" cy="0" r="9.90" fill="#00FF88" opacity="0.1"/>
  <circle cx="0" cy="0" r="3.85" fill="#00FF88" opacity="1"/>
  <circle cx="0" cy="-38" r="3.85" fill="#00D4FF" opacity="0.85"/>
  <circle cx="38" cy="0" r="3.85" fill="#00D4FF" opacity="0.85"/>
  <circle cx="0" cy="38" r="3.85" fill="#00D4FF" opacity="0.85"/>
  <circle cx="-38" cy="0" r="3.85" fill="#00D4FF" opacity="0.85"/>
  <circle cx="12" cy="12" r="2.75" fill="#00D4FF" opacity="0.45"/>
  <circle cx="-12" cy="-12" r="2.75" fill="#00D4FF" opacity="0.45"/></g>
  <text x="380" y="175" font-family="Oxanium,sans-serif" font-weight="600" font-size="48" fill="#E0E0EE">P</text>
  <text x="428" y="152" font-family="'Space Mono',monospace" font-size="20" fill="#00FF88">31</text>
  <text x="458" y="175" font-family="Oxanium,sans-serif" font-weight="300" font-size="48" fill="#E0E0EE" letter-spacing="6">LABS</text>
  <text x="380" y="208" font-family="'Space Mono',monospace" font-size="9.5" fill="#7878AA" letter-spacing="4.5">PROTECTING FUTURE MINDS</text>
  <line x1="380" y1="230" x2="800" y2="230" stroke="#00FF88" stroke-width="1" opacity="0.3"/>
  <text x="380" y="255" font-family="'Space Mono',monospace" font-size="8" fill="#7878AA">Open-source assistive technology for neurodivergent individuals · Georgia 501(c)(3) · CERN-OHL-S-2.0 · MIT License</text>
  <path d="M 0.0,44.5 L 13.2,44.2 L 26.4,43.7 L 39.6,43.0 L 52.8,42.1 L 66.0,41.0 L 79.2,39.7 L 92.4,38.3 L 105.6,36.9 L 118.8,35.6 L 132.0,34.5 L 145.2,33.8 L 158.4,33.5 L 171.6,33.7 L 184.8,34.4 L 198.0,35.4 L 211.2,36.6 L 224.4,37.9 L 237.6,39.0 L 250.8,39.8 L 264.0,40.2 L 277.2,40.1 L 290.4,39.4 L 303.6,38.2 L 316.8,36.6 L 330.0,34.7 L 343.2,32.7 L 356.4,30.8 L 369.6,29.2 L 382.8,28.1 L 396.0,27.8 L 409.2,28.2 L 422.4,29.2 L 435.6,30.8 L 448.8,32.8 L 462.0,35.0 L 475.2,37.1 L 488.4,39.1 L 501.6,40.7 L 514.8,42.0 L 528.0,43.0 L 541.2,43.8 L 554.4,44.2 L 567.6,44.6 L 580.8,44.8 L 594.0,44.9 L 607.2,44.9 L 620.4,45.0 L 633.6,45.0 L 646.8,45.0 L 660.0,45.0 L 673.2,45.0 L 686.4,44.9 L 699.6,44.5 L 712.8,43.3 L 726.0,40.6 L 739.2,35.5 L 752.4,27.5 L 765.6,18.0 L 778.8,9.9 L 792.0,6.7 L 805.2,9.9 L 818.4,17.9 L 831.6,27.3 L 844.8,35.2 L 858.0,40.1 L 871.2,42.5 L 884.4,43.1 L 897.6,42.7 L 910.8,41.7 L 924.0,40.2 L 937.2,38.4 L 950.4,36.2 L 963.6,33.9 L 976.8,31.5 L 990.0,29.3 L 1003.2,27.4 L 1016.4,26.2 L 1029.6,25.8 L 1042.8,26.1 L 1056.0,27.2 L 1069.2,28.7 L 1082.4,30.6 L 1095.6,32.4 L 1108.8,33.9 L 1122.0,34.9 L 1135.2,35.3 L 1148.4,35.0 L 1161.6,34.1 L 1174.8,32.7 L 1188.0,31.2 L 1201.2,29.6 L 1214.4,28.4 L 1227.6,27.7 L 1240.8,27.6 L 1254.0,28.1 L 1267.2,29.2 L 1280.4,30.6 L 1293.6,32.2 L 1306.8,33.5 L 1320.0,34.6 L 1333.2,35.1 L 1346.4,35.1 L 1359.6,34.7 L 1372.8,33.9 L 1386.0,33.0 L 1399.2,32.1 L 1412.4,31.6 L 1425.6,31.4 L 1438.8,31.8 L 1452.0,32.7 L 1465.2,34.0 L 1478.4,35.5 L 1491.6,37.2 L 1504.8,38.9 L 1518.0,40.4 L 1531.2,41.7 L 1544.4,42.7 L 1557.6,43.5 L 1570.8,44.0 L 1584.0,44.4 L 1584,45.0 Z" fill="rgba(0,255,136,0.08)" stroke="#00FF88" stroke-width="1.5" stroke-opacity="0.4" transform="translate(0, 346)"/>
  <text x="1280" y="385" font-family="'Space Mono',monospace" font-size="9" fill="#7878AA">phosphorus31.org</text>
</svg>