<?xml version="1.0" encoding="UTF-8"?>
<svg xmlns="http://www.w3.org/2000/svg" viewBox="0 0 1500 500" width="1500" height="500">
  <rect width="1500" height="500" fill="#050510"/>
  <g transform="translate(350, 230) scale(2.8)">
  <path d="M 20 20 L 20 -20 L -20 -20 L -20 20 Z" stroke="#00FF88" stroke-width="0.99" opacity="0.25" fill="none"/>
  <path d="M 28 28 L 28 -28 L -28 -28 L -28 28 Z" stroke="#00FF88" stroke-width="1.32" opacity="0.55" fill="none"/>
  <path d="M 28 28 L 20 20 M 28 -28 L 20 -20 M -28 -28 L -20 -20 M -28 28 L -20 20" stroke="#00FF88" stroke-width="0.77" opacity="0.2" fill="none"/>
  <path d="M 0 -38 L 38 0 L 0 38 L -38 0 Z" stroke="#00D4FF" stroke-width="0.88" opacity="0.4" fill="none"/>
  <path d="M 12 12 L -12 -12" stroke="#00D4FF" stroke-width="0.88" opacity="0.25" fill="none"/>
  <path d="M 28 28 L 38 0 M 28 28 L 0 38 M 28 -28 L 38 0 M 28 -28 L 0 -38 M -28 -28 L -38 0 M -28 -28 L 0 -38 M -28 28 L -38 0 M -28 28 L 0 38" stroke="#7A27FF" stroke-width="0.44" opacity="0.15" fill="none"/>
  <circle cx="20" cy="20" r="2.42" fill="#00FF88" opacity="0.5"/>
  <circle cx="20" cy="-20" r="2.42" fill="#00FF88" opacity="0.5"/>
  <circle cx="-20" cy="-20" r="2.42" fill="#00FF88" opacity="0.5"/>
  <circle cx="-20" cy="20" r="2.42" fill="#00FF88" opacity="0.5"/>
  <circle cx="28" cy="28" r="3.30" fill="#00FF88" opacity="0.9"/>
  <circle cx="28" cy="-28" r="3.30" fill="#00FF88" opacity="0.9"/>
  <circle cx="-28" cy="-28" r="3.30" fill="#00FF88" opacity="0.9"/>
  <circle cx="-28" cy="28" r="3.30" fill="#00FF88" opacity="0.9"/>
  <circle cx="0" cy="0" r="9.90" fill="#00FF88" opacity="0.1"/>
  <circle cx="0" cy="0" r="3.85" fill="#00FF88" opacity="1"/>
  <circle cx="0" cy="-38" r="3.85" fill="#00D4FF" opacity="0.85"/>
  <circle cx="38" cy="0" r="3.85" fill="#00D4FF" opacity="0.85"/>
  <circle cx="0" cy="38" r="3.85" fill="#00D4FF" opacity="0.85"/>
  <circle cx="-38" cy="0" r="3.85" fill="#00D4FF" opacity="0.85"/>
  <circle cx="12" cy="12" r="2.75" fill="#00D4FF" opacity="0.45"/>
  <circle cx="-12" cy="-12" r="2.75" fill="#00D4FF" opacity="0.45"/></g>
  <text x="580" y="220" font-family="Oxanium,sans-serif" font-weight="600" font-size="56" fill="#E0E0EE">P</text>
  <text x="632" y="192" font-family="'Space Mono',monospace" font-size="24" fill="#00FF88">31</text>
  <text x="668" y="220" font-family="Oxanium,sans-serif" font-weight="300" font-size="56" fill="#E0E0EE" letter-spacing="6">LABS</text>
  <text x="580" y="258" font-family="'Space Mono',monospace" font-size="11" fill="#7878AA" letter-spacing="4.5">PROTECTING FUTURE MINDS</text>
  <circle cx="580" cy="300" r="6" fill="#00FF88"/><circle cx="610" cy="300" r="6" fill="#00D4FF"/><circle cx="640" cy="300" r="6" fill="#FF00CC"/><circle cx="670" cy="300" r="6" fill="#7A27FF"/><circle cx="700" cy="300" r="6" fill="#FFB800"/>
  <path d="M 0.0,53.4 L 12.5,53.0 L 25.0,52.4 L 37.5,51.6 L 50.0,50.6 L 62.5,49.2 L 75.0,47.7 L 87.5,46.0 L 100.0,44.3 L 112.5,42.7 L 125.0,41.4 L 137.5,40.5 L 150.0,40.2 L 162.5,40.5 L 175.0,41.3 L 187.5,42.5 L 200.0,44.0 L 212.5,45.5 L 225.0,46.8 L 237.5,47.8 L 250.0,48.2 L 262.5,48.1 L 275.0,47.3 L 287.5,45.9 L 300.0,43.9 L 312.5,41.6 L 325.0,39.2 L 337.5,36.9 L 350.0,35.0 L 362.5,33.8 L 375.0,33.3 L 387.5,33.8 L 400.0,35.1 L 412.5,37.0 L 425.0,39.4 L 437.5,42.0 L 450.0,44.5 L 462.5,46.9 L 475.0,48.8 L 487.5,50.4 L 500.0,51.6 L 512.5,52.5 L 525.0,53.1 L 537.5,53.5 L 550.0,53.7 L 562.5,53.8 L 575.0,53.9 L 587.5,54.0 L 600.0,54.0 L 612.5,54.0 L 625.0,54.0 L 637.5,54.0 L 650.0,53.8 L 662.5,53.3 L 675.0,52.0 L 687.5,48.8 L 700.0,42.6 L 712.5,33.0 L 725.0,21.6 L 737.5,11.9 L 750.0,8.1 L 762.5,11.9 L 775.0,21.5 L 787.5,32.8 L 800.0,42.2 L 812.5,48.2 L 825.0,51.0 L 837.5,51.7 L 850.0,51.2 L 862.5,50.0 L 875.0,48.3 L 887.5,46.1 L 900.0,43.5 L 912.5,40.7 L 925.0,37.8 L 937.5,35.1 L 950.0,32.9 L 962.5,31.5 L 975.0,30.9 L 987.5,31.3 L 1000.0,32.6 L 1012.5,34.5 L 1025.0,36.7 L 1037.5,38.9 L 1050.0,40.7 L 1062.5,41.9 L 1075.0,42.4 L 1087.5,42.0 L 1100.0,40.9 L 1112.5,39.3 L 1125.0,37.4 L 1137.5,35.5 L 1150.0,34.1 L 1162.5,33.2 L 1175.0,33.1 L 1187.5,33.8 L 1200.0,35.0 L 1212.5,36.8 L 1225.0,38.6 L 1237.5,40.3 L 1250.0,41.5 L 1262.5,42.2 L 1275.0,42.2 L 1287.5,41.6 L 1300.0,40.7 L 1312.5,39.6 L 1325.0,38.5 L 1337.5,37.9 L 1350.0,37.7 L 1362.5,38.2 L 1375.0,39.2 L 1387.5,40.8 L 1400.0,42.6 L 1412.5,44.7 L 1425.0,46.6 L 1437.5,48.5 L 1450.0,50.0 L 1462.5,51.2 L 1475.0,52.2 L 1487.5,52.8 L 1500.0,53.3 L 1500,54.0 Z" fill="rgba(0,255,136,0.08)" stroke="#00FF88" stroke-width="1.5" stroke-opacity="0.4" transform="translate(0, 440)"/>
  <text x="1250" y="30" font-family="'Space Mono',monospace" font-size="8" fill="#4A4A7A">Ca₉(PO₄)₆ · PHOSPHORUS-31 · SPIN ½</text>
  <text x="1350" y="485" font-family="'Space Mono',monospace" font-size="10" fill="#7878AA">p31.io</text>
</svg>