<?xml version="1.0" encoding="UTF-8"?>
<svg xmlns="http://www.w3.org/2000/svg" viewBox="0 0 400 80">
  <defs><linearGradient id="spec-fill" x1="0" y1="1" x2="0" y2="0"><stop offset="0" stop-color="#00FF88" stop-opacity="0"/><stop offset="1" stop-color="#00FF88" stop-opacity="0.08"/></linearGradient></defs>
  <path d="M 0.0,72.8 L 3.3,72.2 L 6.7,71.5 L 10.0,70.4 L 13.3,68.9 L 16.7,67.1 L 20.0,65.0 L 23.3,62.7 L 26.7,60.3 L 30.0,58.2 L 33.3,56.4 L 36.7,55.2 L 40.0,54.8 L 43.3,55.2 L 46.7,56.3 L 50.0,57.9 L 53.3,59.9 L 56.7,62.0 L 60.0,63.8 L 63.3,65.1 L 66.7,65.7 L 70.0,65.5 L 73.3,64.4 L 76.7,62.5 L 80.0,59.9 L 83.3,56.8 L 86.7,53.4 L 90.0,50.3 L 93.3,47.7 L 96.7,46.0 L 100.0,45.4 L 103.3,46.0 L 106.7,47.8 L 110.0,50.4 L 113.3,53.7 L 116.7,57.2 L 120.0,60.7 L 123.3,63.9 L 126.7,66.6 L 130.0,68.7 L 133.3,70.4 L 136.7,71.6 L 140.0,72.4 L 143.3,72.9 L 146.7,73.2 L 150.0,73.4 L 153.3,73.5 L 156.7,73.5 L 160.0,73.6 L 163.3,73.6 L 166.7,73.6 L 170.0,73.5 L 173.3,73.4 L 176.7,72.7 L 180.0,70.9 L 183.3,66.5 L 186.7,58.0 L 190.0,45.0 L 193.3,29.4 L 196.7,16.2 L 200.0,11.0 L 203.3,16.2 L 206.7,29.3 L 210.0,44.7 L 213.3,57.6 L 216.7,65.7 L 220.0,69.5 L 223.3,70.4 L 226.7,69.8 L 230.0,68.2 L 233.3,65.8 L 236.7,62.8 L 240.0,59.3 L 243.3,55.4 L 246.7,51.5 L 250.0,47.9 L 253.3,44.9 L 256.7,42.9 L 260.0,42.2 L 263.3,42.7 L 266.7,44.4 L 270.0,47.0 L 273.3,50.0 L 276.7,53.0 L 280.0,55.5 L 283.3,57.1 L 286.7,57.8 L 290.0,57.3 L 293.3,55.8 L 296.7,53.5 L 300.0,51.0 L 303.3,48.4 L 306.7,46.4 L 310.0,45.3 L 313.3,45.1 L 316.7,46.0 L 320.0,47.8 L 323.3,50.1 L 326.7,52.6 L 330.0,54.9 L 333.3,56.6 L 336.7,57.5 L 340.0,57.5 L 343.3,56.7 L 346.7,55.4 L 350.0,53.9 L 353.3,52.5 L 356.7,51.6 L 360.0,51.4 L 363.3,52.0 L 366.7,53.4 L 370.0,55.5 L 373.3,58.1 L 376.7,60.9 L 380.0,63.6 L 383.3,66.0 L 386.7,68.1 L 390.0,69.8 L 393.3,71.1 L 396.7,72.0 L 400.0,72.6 L 400,73.6 Z" fill="url(#spec-fill)" stroke="#00FF88" stroke-width="1.5" stroke-opacity="0.4"/>
</svg>