<?xml version="1.0" encoding="UTF-8"?>
<svg xmlns="http://www.w3.org/2000/svg" viewBox="-48 -48 96 96" fill="none">
  <path d="M 20 20 L 20 -20 L -20 -20 L -20 20 Z" stroke="#00FF88" stroke-width="0.99" opacity="0.25" fill="none"/>
  <path d="M 28 28 L 28 -28 L -28 -28 L -28 28 Z" stroke="#00FF88" stroke-width="1.32" opacity="0.55" fill="none"/>
  <path d="M 28 28 L 20 20 M 28 -28 L 20 -20 M -28 -28 L -20 -20 M -28 28 L -20 20" stroke="#00FF88" stroke-width="0.77" opacity="0.2" fill="none"/>
  <path d="M 0 -38 L 38 0 L 0 38 L -38 0 Z" stroke="#00D4FF" stroke-width="0.88" opacity="0.4" fill="none"/>
  <path d="M 12 12 L -12 -12" stroke="#00D4FF" stroke-width="0.88" opacity="0.25" fill="none"/>
  <path d="M 28 28 L 38 0 M 28 28 L 0 38 M 28 -28 L 38 0 M 28 -28 L 0 -38 M -28 -28 L -38 0 M -28 -28 L 0 -38 M -28 28 L -38 0 M -28 28 L 0 38" stroke="#7A27FF" stroke-width="0.44" opacity="0.15" fill="none"/>
  <circle cx="20" cy="20" r="2.42" fill="#00FF88" opacity="0.5"/>
  <circle cx="20" cy="-20" r="2.42" fill="#00FF88" opacity="0.5"/>
  <circle cx="-20" cy="-20" r="2.42" fill="#00FF88" opacity="0.5"/>
  <circle cx="-20" cy="20" r="2.42" fill="#00FF88" opacity="0.5"/>
  <circle cx="28" cy="28" r="3.30" fill="#00FF88" opacity="0.9"/>
  <circle cx="28" cy="-28" r="3.30" fill="#00FF88" opacity="0.9"/>
  <circle cx="-28" cy="-28" r="3.30" fill="#00FF88" opacity="0.9"/>
  <circle cx="-28" cy="28" r="3.30" fill="#00FF88" opacity="0.9"/>
  <circle cx="0" cy="0" r="9.90" fill="#00FF88" opacity="0.1"/>
  <circle cx="0" cy="0" r="3.85" fill="#00FF88" opacity="1"/>
  <circle cx="0" cy="-38" r="3.85" fill="#00D4FF" opacity="0.85"/>
  <circle cx="38" cy="0" r="3.85" fill="#00D4FF" opacity="0.85"/>
  <circle cx="0" cy="38" r="3.85" fill="#00D4FF" opacity="0.85"/>
  <circle cx="-38" cy="0" r="3.85" fill="#00D4FF" opacity="0.85"/>
  <circle cx="12" cy="12" r="2.75" fill="#00D4FF" opacity="0.45"/>
  <circle cx="-12" cy="-12" r="2.75" fill="#00D4FF" opacity="0.45"/>
</svg>