G04 Sensory Cyberdeck - Bottom Silkscreen*
G04 Layer: B.SilkS*
G04 White Silkscreen on Matte Black*
%FSLAX46Y46*%
%MOMM*%
%LPD*%
%ADD10C,0.152400*%
%ADD11C,0.200000*%
G04 Project Name - Large Hexagonal Pattern*
D11*
G04 "SENSORY CYBERDECK" in geometric style*
G04 Hex pattern forming text backdrop*
X15000000Y35000000D02*
X16000000Y35500000D01*
X16000000Y36500000D01*
X15000000Y37000000D01*
X14000000Y36500000D01*
X14000000Y35500000D01*
X15000000Y35000000D01*
X18000000Y35000000D02*
X19000000Y35500000D01*
X19000000Y36500000D01*
X18000000Y37000000D01*
X17000000Y36500000D01*
X17000000Y35500000D01*
X18000000Y35000000D01*
X21000000Y35000000D02*
X22000000Y35500000D01*
X22000000Y36500000D01*
X21000000Y37000000D01*
X20000000Y36500000D01*
X20000000Y35500000D01*
X21000000Y35000000D01*
G04 Version and Date*
D10*
X25000000Y5000000D02*
X30000000Y5000000D01*
G04 "v1.0 - 2024" text*
X27000000Y5500000D02*
X27000000Y6500000D01*
G04 Touch Zone Labels*
D11*
G04 "TOUCH ZONE 1" indicator*
X32000000Y17500000D02*
X33000000Y17500000D01*
X32500000Y17000000D02*
X32500000Y18000000D01*
G04 "TOUCH ZONE 2" indicator*
X40000000Y45000000D02*
X42000000Y45000000D01*
X41000000Y44500000D02*
X41000000Y45500000D01*
G04 Decorative Circuit Patterns*
D10*
G04 Parallel lines (circuit aesthetic)*
X10000000Y30000000D02*
X10000000Y40000000D01*
X12000000Y30000000D02*
X12000000Y40000000D01*
X14000000Y30000000D02*
X14000000Y40000000D01*
G04 Angular patterns*
X35000000Y30000000D02*
X37000000Y32000000D01*
X39000000Y30000000D01*
X35000000Y35000000D02*
X37000000Y37000000D01*
X39000000Y35000000D01*
G04 Maker Attribution Area*
D11*
X25000000Y48000000D02*
X26000000Y48000000D01*
G04 Space for maker to add their name/callsign*
X25500000Y47500000D02*
X25500000Y48500000D01*
G04 Warning Text*
D10*
G04 "ENIG FINISH - DO NOT CLEAN WITH ABRASIVES"*
X5000000Y2000000D02*
X20000000Y2000000D01*
M02*
