<?xml version="1.0" encoding="UTF-8"?>
<svg xmlns="http://www.w3.org/2000/svg" viewBox="0 0 480 140" width="960" height="280">
  <defs><style>@import url('https://fonts.googleapis.com/css2?family=Oxanium:wght@300;600&amp;family=Space+Mono:wght@400&amp;display=swap');</style></defs>
  <g transform="translate(70, 62) scale(1.1)">
  <path d="M 20 20 L 20 -20 L -20 -20 L -20 20 Z" stroke="#FFFFFF" stroke-width="0.99" opacity="0.25" fill="none"/>
  <path d="M 28 28 L 28 -28 L -28 -28 L -28 28 Z" stroke="#FFFFFF" stroke-width="1.32" opacity="0.55" fill="none"/>
  <path d="M 28 28 L 20 20 M 28 -28 L 20 -20 M -28 -28 L -20 -20 M -28 28 L -20 20" stroke="#FFFFFF" stroke-width="0.77" opacity="0.2" fill="none"/>
  <path d="M 0 -38 L 38 0 L 0 38 L -38 0 Z" stroke="#FFFFFF" stroke-width="0.88" opacity="0.4" fill="none"/>
  <path d="M 12 12 L -12 -12" stroke="#FFFFFF" stroke-width="0.88" opacity="0.25" fill="none"/>
  <path d="M 28 28 L 38 0 M 28 28 L 0 38 M 28 -28 L 38 0 M 28 -28 L 0 -38 M -28 -28 L -38 0 M -28 -28 L 0 -38 M -28 28 L -38 0 M -28 28 L 0 38" stroke="#FFFFFF" stroke-width="0.44" opacity="0.15" fill="none"/>
  <circle cx="20" cy="20" r="2.42" fill="#FFFFFF" opacity="0.5"/><circle cx="20" cy="-20" r="2.42" fill="#FFFFFF" opacity="0.5"/><circle cx="-20" cy="-20" r="2.42" fill="#FFFFFF" opacity="0.5"/><circle cx="-20" cy="20" r="2.42" fill="#FFFFFF" opacity="0.5"/>
  <circle cx="28" cy="28" r="3.3" fill="#FFFFFF" opacity="0.9"/><circle cx="28" cy="-28" r="3.3" fill="#FFFFFF" opacity="0.9"/><circle cx="-28" cy="-28" r="3.3" fill="#FFFFFF" opacity="0.9"/><circle cx="-28" cy="28" r="3.3" fill="#FFFFFF" opacity="0.9"/>
  <circle cx="0" cy="0" r="9.9" fill="#FFFFFF" opacity="0.1"/><circle cx="0" cy="0" r="3.85" fill="#FFFFFF" opacity="1"/>
  <circle cx="0" cy="-38" r="3.85" fill="#FFFFFF" opacity="0.85"/><circle cx="38" cy="0" r="3.85" fill="#FFFFFF" opacity="0.85"/><circle cx="0" cy="38" r="3.85" fill="#FFFFFF" opacity="0.85"/><circle cx="-38" cy="0" r="3.85" fill="#FFFFFF" opacity="0.85"/>
  <circle cx="12" cy="12" r="2.75" fill="#FFFFFF" opacity="0.45"/><circle cx="-12" cy="-12" r="2.75" fill="#FFFFFF" opacity="0.45"/>
  </g>
  <text x="140" y="72" font-family="Oxanium,sans-serif" font-weight="600" font-size="48" fill="#FFFFFF">P</text>
  <text x="178" y="50" font-family="'Space Mono',monospace" font-size="20" fill="#FFFFFF" opacity="0.9">31</text>
  <text x="208" y="72" font-family="Oxanium,sans-serif" font-weight="300" font-size="48" fill="#FFFFFF" letter-spacing="6">LABS</text>
  <text x="140" y="92" font-family="'Space Mono',monospace" font-size="9.5" fill="#FFFFFF" opacity="0.7" letter-spacing="4.5">PROTECTING FUTURE MINDS</text>
  <text x="140" y="110" font-family="'Space Mono',monospace" font-size="7.5" fill="#FFFFFF" opacity="0.5" letter-spacing="2.5">OPEN-SOURCE ASSISTIVE TECHNOLOGY</text>
</svg>