G04 Sensory Cyberdeck - Top Copper Layer*
G04 Layer: F.Cu*
G04 File Format: Gerber RS-274X*
%FSLAX46Y46*%
%MOMM*%
%LPD*%
%ADD10C,0.152400*%
%ADD11C,0.254000*%
%ADD12C,0.508000*%
%ADD13R,1.524000X1.524000*%
%ADD14C,1.524000*%
%ADD15R,2.000000X1.500000*%
%ADD16C,0.600000*%
G04 Board Outline*
G01*
%LPD*%
D10*
X0Y0D02*
X51000000Y0D01*
X51000000Y51000000D01*
X0Y51000000D01*
X0Y0D01*
G04 Mounting Holes (M2.5)*
D10*
X2500000Y2500000D03*
X48500000Y2500000D03*
X2500000Y48500000D03*
X48500000Y48500000D03*
G04 Power Planes*
D12*
G04 3.3V Power Trace from Regulator*
X10000000Y25000000D02*
X20000000Y25000000D01*
X25000000Y25000000D01*
G04 GND connections*
X15000000Y15000000D02*
X15000000Y35000000D01*
G04 Component Pads - ESP32-S3 (simplified)*
D13*
X8000000Y30000000D03*
X10000000Y30000000D03*
X12000000Y30000000D03*
X8000000Y32000000D03*
X10000000Y32000000D03*
X12000000Y32000000D03*
G04 Component Pads - LoRa Module*
D15*
X8000000Y20000000D03*
X12000000Y20000000D03*
X8000000Y18000000D03*
X12000000Y18000000D03*
G04 Component Pads - Rotary Encoder*
D14*
X43000000Y43000000D03*
X45000000Y43000000D03*
X43000000Y40000000D03*
G04 Component Pads - Mechanical Switches*
D15*
X43000000Y30000000D03*
X45000000Y30000000D03*
X43000000Y20000000D03*
X45000000Y20000000D03*
G04 Component Pads - SK6812 LEDs (5x)*
D13*
X10000000Y5000000D03*
X15000000Y5000000D03*
X20000000Y5000000D03*
X25000000Y5000000D03*
X30000000Y5000000D03*
G04 Component Pads - USB-C Connector*
D13*
X25000000Y2000000D03*
X23000000Y2000000D03*
X27000000Y2000000D03*
G04 I2C Bus Traces (SDA/SCL)*
D11*
X12000000Y32000000D02*
X18000000Y32000000D01*
X18000000Y25000000D01*
X12000000Y30000000D02*
X18000000Y30000000D01*
X18000000Y23000000D01*
G04 SPI Bus Traces*
D11*
X12000000Y18000000D02*
X20000000Y18000000D01*
X20000000Y22000000D01*
G04 LED Data Line*
D11*
X10000000Y5000000D02*
X30000000Y5000000D01*
G04 Vias*
D16*
X15000000Y20000000D03*
X35000000Y20000000D03*
X15000000Y40000000D03*
X35000000Y40000000D03*
M02*
